<mxfile host="app.diagrams.net" modified="2023-09-21T02:35:32.864Z" agent="Mozilla/5.0 (Windows NT 10.0; Win64; x64) AppleWebKit/537.36 (KHTML, like Gecko) Chrome/117.0.0.0 Safari/537.36" etag="z5BCVWOD5ddn3LWdIMnS" version="21.8.0" type="github">
  <diagram id="6a731a19-8d31-9384-78a2-239565b7b9f0" name="Page-1">
    <mxGraphModel dx="1434" dy="878" grid="1" gridSize="10" guides="1" tooltips="1" connect="1" arrows="1" fold="1" page="1" pageScale="1" pageWidth="2336" pageHeight="1654" background="none" math="0" shadow="1">
      <root>
        <mxCell id="0" />
        <mxCell id="1" parent="0" />
        <mxCell id="pIrPDSXK6qlcN9ApZmw5-3" value="&lt;font style=&quot;font-size: 20px;&quot;&gt;Upper computer equipment&lt;/font&gt;" style="rounded=1;whiteSpace=wrap;html=1;shadow=0;strokeWidth=2;fontSize=12;align=center;arcSize=3;verticalAlign=top;fillColor=#f5f5f5;fontColor=#333333;strokeColor=#666666;" vertex="1" parent="1">
          <mxGeometry x="110" y="120" width="150" height="440" as="geometry" />
        </mxCell>
        <mxCell id="4L-7aMJc5HiqzdiqpkeI-2" value="" style="outlineConnect=0;dashed=0;verticalLabelPosition=bottom;verticalAlign=top;align=center;html=1;shape=mxgraph.aws3.alexa_enabled_device;fillColor=#fad7ac;strokeColor=#b46504;" parent="1" vertex="1">
          <mxGeometry x="145.25" y="200" width="79.5" height="79.5" as="geometry" />
        </mxCell>
        <mxCell id="4L-7aMJc5HiqzdiqpkeI-4" value="" style="outlineConnect=0;dashed=0;verticalLabelPosition=bottom;verticalAlign=top;align=center;html=1;shape=mxgraph.aws3.alexa_enabled_device;fillColor=#fad7ac;strokeColor=#b46504;" parent="1" vertex="1">
          <mxGeometry x="145.25" y="330" width="79.5" height="79.5" as="geometry" />
        </mxCell>
        <mxCell id="4L-7aMJc5HiqzdiqpkeI-5" value="" style="outlineConnect=0;dashed=0;verticalLabelPosition=bottom;verticalAlign=top;align=center;html=1;shape=mxgraph.aws3.alexa_enabled_device;fillColor=#fad7ac;strokeColor=#b46504;" parent="1" vertex="1">
          <mxGeometry x="145.25" y="450" width="79.5" height="79.5" as="geometry" />
        </mxCell>
        <mxCell id="pIrPDSXK6qlcN9ApZmw5-40" value="" style="edgeStyle=orthogonalEdgeStyle;rounded=0;orthogonalLoop=1;jettySize=auto;html=1;fontFamily=Helvetica;fontSize=12;fontColor=default;" edge="1" parent="1" source="pIrPDSXK6qlcN9ApZmw5-7" target="pIrPDSXK6qlcN9ApZmw5-39">
          <mxGeometry relative="1" as="geometry" />
        </mxCell>
        <mxCell id="pIrPDSXK6qlcN9ApZmw5-7" value="&lt;font style=&quot;font-size: 20px;&quot;&gt;EMQX Cluster&lt;/font&gt;" style="rounded=1;whiteSpace=wrap;html=1;shadow=0;strokeWidth=2;fontSize=12;align=center;arcSize=3;verticalAlign=top;fillColor=#dae8fc;strokeColor=#6c8ebf;" vertex="1" parent="1">
          <mxGeometry x="430" y="120" width="370" height="440" as="geometry" />
        </mxCell>
        <mxCell id="pIrPDSXK6qlcN9ApZmw5-11" value="" style="outlineConnect=0;dashed=0;verticalLabelPosition=bottom;verticalAlign=top;align=center;html=1;shape=mxgraph.aws3.mqtt_protocol;fillColor=#5294CF;gradientColor=none;" vertex="1" parent="1">
          <mxGeometry x="310" y="134" width="63" height="66" as="geometry" />
        </mxCell>
        <mxCell id="pIrPDSXK6qlcN9ApZmw5-12" value="" style="endArrow=classic;startArrow=classic;html=1;rounded=0;entryX=0.004;entryY=0.233;entryDx=0;entryDy=0;entryPerimeter=0;exitX=1;exitY=0.233;exitDx=0;exitDy=0;exitPerimeter=0;" edge="1" parent="1" source="pIrPDSXK6qlcN9ApZmw5-3" target="pIrPDSXK6qlcN9ApZmw5-7">
          <mxGeometry width="50" height="50" relative="1" as="geometry">
            <mxPoint x="260" y="240" as="sourcePoint" />
            <mxPoint x="310" y="190" as="targetPoint" />
          </mxGeometry>
        </mxCell>
        <mxCell id="pIrPDSXK6qlcN9ApZmw5-13" value="" style="endArrow=classic;startArrow=classic;html=1;rounded=0;exitX=1;exitY=0.233;exitDx=0;exitDy=0;exitPerimeter=0;" edge="1" parent="1">
          <mxGeometry width="50" height="50" relative="1" as="geometry">
            <mxPoint x="260" y="359.5" as="sourcePoint" />
            <mxPoint x="430" y="359.5" as="targetPoint" />
          </mxGeometry>
        </mxCell>
        <mxCell id="pIrPDSXK6qlcN9ApZmw5-14" value="" style="endArrow=classic;startArrow=classic;html=1;rounded=0;exitX=1;exitY=0.233;exitDx=0;exitDy=0;exitPerimeter=0;entryX=0.009;entryY=0.876;entryDx=0;entryDy=0;entryPerimeter=0;" edge="1" parent="1">
          <mxGeometry width="50" height="50" relative="1" as="geometry">
            <mxPoint x="257.93" y="482.08" as="sourcePoint" />
            <mxPoint x="429.99999999999994" y="480.00000000000006" as="targetPoint" />
          </mxGeometry>
        </mxCell>
        <mxCell id="pIrPDSXK6qlcN9ApZmw5-24" value="&lt;font face=&quot;Lucida Console&quot; color=&quot;#000000&quot; style=&quot;font-size: 15px;&quot;&gt;emqx node&lt;/font&gt;" style="image;html=1;image=img/lib/clip_art/computers/Server_128x128.png;labelBackgroundColor=default;strokeColor=default;align=center;verticalAlign=top;fontFamily=Helvetica;fontSize=12;fontColor=#75FF30;fillColor=default;" vertex="1" parent="1">
          <mxGeometry x="494" y="199.5" width="80" height="80" as="geometry" />
        </mxCell>
        <mxCell id="pIrPDSXK6qlcN9ApZmw5-29" value="&lt;font face=&quot;Lucida Console&quot; color=&quot;#000000&quot; style=&quot;font-size: 15px;&quot;&gt;emqx node&lt;/font&gt;" style="image;html=1;image=img/lib/clip_art/computers/Server_128x128.png;labelBackgroundColor=default;strokeColor=default;align=center;verticalAlign=top;fontFamily=Helvetica;fontSize=12;fontColor=#75FF30;fillColor=default;" vertex="1" parent="1">
          <mxGeometry x="494" y="330" width="80" height="80" as="geometry" />
        </mxCell>
        <mxCell id="pIrPDSXK6qlcN9ApZmw5-31" value="&lt;font face=&quot;Lucida Console&quot; color=&quot;#000000&quot; style=&quot;font-size: 15px;&quot;&gt;emqx node&lt;/font&gt;" style="image;html=1;image=img/lib/clip_art/computers/Server_128x128.png;labelBackgroundColor=default;strokeColor=default;align=center;verticalAlign=top;fontFamily=Helvetica;fontSize=12;fontColor=#75FF30;fillColor=default;" vertex="1" parent="1">
          <mxGeometry x="494" y="449.5" width="80" height="80" as="geometry" />
        </mxCell>
        <mxCell id="pIrPDSXK6qlcN9ApZmw5-35" value="&lt;font face=&quot;Lucida Console&quot;&gt;&lt;span style=&quot;font-size: 15px;&quot;&gt;Rule Engine&lt;br&gt;&lt;/span&gt;&lt;/font&gt;" style="shape=image;verticalLabelPosition=bottom;labelBackgroundColor=#ffffff;verticalAlign=top;aspect=fixed;imageAspect=0;image=data:image/svg+xml,PHN2ZyB4bWxuczpjYz0iaHR0cDovL2NyZWF0aXZlY29tbW9ucy5vcmcvbnMjIiB4bWxuczpkYz0iaHR0cDovL3B1cmwub3JnL2RjL2VsZW1lbnRzLzEuMS8iIHhtbG5zOmlua3NjYXBlPSJodHRwOi8vd3d3Lmlua3NjYXBlLm9yZy9uYW1lc3BhY2VzL2lua3NjYXBlIiB4bWxuczpyZGY9Imh0dHA6Ly93d3cudzMub3JnLzE5OTkvMDIvMjItcmRmLXN5bnRheC1ucyMiIHhtbG5zOnNvZGlwb2RpPSJodHRwOi8vc29kaXBvZGkuc291cmNlZm9yZ2UubmV0L0RURC9zb2RpcG9kaS0wLmR0ZCIgeG1sbnM6c3ZnPSJodHRwOi8vd3d3LnczLm9yZy8yMDAwL3N2ZyIgeG1sbnM9Imh0dHA6Ly93d3cudzMub3JnLzIwMDAvc3ZnIiB4bWxuczp4bGluaz0iaHR0cDovL3d3dy53My5vcmcvMTk5OS94bGluayIgdmVyc2lvbj0iMS4xIiBpZD0ic3ZnNDM1MTIiIGlua3NjYXBlOnZlcnNpb249IjAuOTIuMyAoMjQwNTU0NiwgMjAxOC0wMy0xMSkiIHNvZGlwb2RpOmRvY25hbWU9ImJ1c2luZXNzX3J1bGVzX2VuZ2luZS5zdmciIHg9IjBweCIgeT0iMHB4IiB2aWV3Qm94PSIwIDAgNTEuMjIgMzcuNTEiIHN0eWxlPSJlbmFibGUtYmFja2dyb3VuZDpuZXcgMCAwIDUxLjIyIDM3LjUxOyIgeG1sOnNwYWNlPSJwcmVzZXJ2ZSI+JiN4YTs8c29kaXBvZGk6bmFtZWR2aWV3IGJvcmRlcmNvbG9yPSIjNjY2NjY2IiBib3JkZXJvcGFjaXR5PSIxIiBmaXQtbWFyZ2luLWJvdHRvbT0iMCIgZml0LW1hcmdpbi1sZWZ0PSIwIiBmaXQtbWFyZ2luLXJpZ2h0PSIwIiBmaXQtbWFyZ2luLXRvcD0iMCIgZ3JpZHRvbGVyYW5jZT0iMTAiIGd1aWRldG9sZXJhbmNlPSIxMCIgaWQ9Im5hbWVkdmlldzQzNTE0IiBpbmtzY2FwZTpjdXJyZW50LWxheWVyPSJzdmc0MzUxMiIgaW5rc2NhcGU6Y3g9IjQwLjQ4NTU3NiIgaW5rc2NhcGU6Y3k9IjUuNjQ3ODUyNCIgaW5rc2NhcGU6cGFnZW9wYWNpdHk9IjAiIGlua3NjYXBlOnBhZ2VzaGFkb3c9IjIiIGlua3NjYXBlOndpbmRvdy1oZWlnaHQ9IjEwMTciIGlua3NjYXBlOndpbmRvdy1tYXhpbWl6ZWQ9IjEiIGlua3NjYXBlOndpbmRvdy13aWR0aD0iMTkyMCIgaW5rc2NhcGU6d2luZG93LXg9Ii04IiBpbmtzY2FwZTp3aW5kb3cteT0iLTgiIGlua3NjYXBlOnpvb209IjYuMTI5Nzk2IiBvYmplY3R0b2xlcmFuY2U9IjEwIiBwYWdlY29sb3I9IiNmZmZmZmYiIHNob3dncmlkPSJmYWxzZSI+JiN4YTsJPC9zb2RpcG9kaTpuYW1lZHZpZXc+JiN4YTs8ZyBpZD0iZzQzNTEwIj4mI3hhOwk8dGl0bGUgaWQ9InRpdGxlNDM0NjciPlBhZ2UtMTwvdGl0bGU+JiN4YTsJPGcgaWQ9Imdyb3VwMjcxMi0xIj4mI3hhOwkJPHRpdGxlIGlkPSJ0aXRsZTQzNDY5Ij5CdXNpbmVzcyBSdWxlcyBFbmdpbmU8L3RpdGxlPiYjeGE7CQk8ZyBpZD0ic2hhcGUyNzEzLTIiPiYjeGE7CQkJPHRpdGxlIGlkPSJ0aXRsZTQzNDcxIj5TaGVldC4yNzEzPC90aXRsZT4mI3hhOwkJCTxwYXRoIGlkPSJwYXRoNDM0NzMiIGlua3NjYXBlOmNvbm5lY3Rvci1jdXJ2YXR1cmU9IjAiIHN0eWxlPSJmaWxsOiMzRjU3NjU7IiBkPSJNNDkuMjcsMEMxLjg5LDAsMS44OSwwLDEuODksMCAgICAgQzAuMzIsMCwwLDAuMzgsMCwxLjk1YzAsMzMuNjcsMCwzMy42NywwLDMzLjY3YzAsMS41NywwLjMyLDEuODksMS44OSwxLjg5YzQ3LjM4LDAsNDcuMzgsMCw0Ny4zOCwwYzEuNjQsMCwxLjk1LTAuMzIsMS45NS0xLjg5ICAgICBjMC0zMy42NywwLTMzLjY3LDAtMzMuNjdDNTEuMjIsMC4zOCw1MC45MSwwLDQ5LjI3LDB6Ii8+JiN4YTsJCTwvZz4mI3hhOwkJPGcgaWQ9InNoYXBlMjcxNC00IiB0cmFuc2Zvcm09InRyYW5zbGF0ZSg0Ny42ODE5LC0zNC43MjU2KSI+JiN4YTsJCQk8dGl0bGUgaWQ9InRpdGxlNDM0NzYiPlNoZWV0LjI3MTQ8L3RpdGxlPiYjeGE7CQkJPHBhdGggaWQ9InBhdGg0MzQ3OCIgaW5rc2NhcGU6Y29ubmVjdG9yLWN1cnZhdHVyZT0iMCIgc3R5bGU9ImZpbGw6I0ZGMDAwMDsiIGQ9Ik0yLjE2LDM2LjQ0YzAsMC42MS0wLjQ4LDEuMDctMS4wNiwxLjA3ICAgICBjLTAuNTksMC0xLjEtMC40Ni0xLjEtMS4wN2MwLTAuNTksMC41MS0xLjA3LDEuMS0xLjA3QzEuNjgsMzUuMzcsMi4xNiwzNS44NSwyLjE2LDM2LjQ0eiIvPiYjeGE7CQk8L2c+JiN4YTsJCTxnIGlkPSJzaGFwZTI3MTUtNiIgdHJhbnNmb3JtPSJ0cmFuc2xhdGUoMTMuMTY3MywtMTAuOTQ5NSkiPiYjeGE7CQkJPHRpdGxlIGlkPSJ0aXRsZTQzNDgxIj5TaGVldC4yNzE1PC90aXRsZT4mI3hhOwkJCTxwYXRoIGlkPSJwYXRoNDM0ODMiIGlua3NjYXBlOmNvbm5lY3Rvci1jdXJ2YXR1cmU9IjAiIHN0eWxlPSJmaWxsOiNGRkZGRkY7IiBkPSJNMjQsMzIuMDNjMC0xLjI2LTEtMi4zMy0yLjMzLTIuMzMgICAgIGMtMy41MywwLTMuNTMsMC0zLjUzLDBjLTMuMDgtMy4wMi0zLjA4LTMuMDItMy4wOC0zLjAyYy03LjU2LDAtNy41NiwwLTcuNTYsMGMtMy4yMiwzLjA4LTMuMjIsMy4wOC0zLjIyLDMuMDggICAgIGMtMS45NSwwLjE5LTMuNTIsMS44My0zLjUyLDMuODRjMCwwLjc2LDAsMC43NiwwLDAuNzZjLTAuNzYsMC0wLjc2LDAtMC43NiwwYzAsMS41MSwwLDEuNTEsMCwxLjUxYzMuMjgsMCwzLjI4LDAsMy4yOCwwICAgICBjMC4zMSwwLjk0LDEuMTksMS42NCwyLjIsMS42NHMxLjgzLTAuNywyLjE0LTEuNjRjOS41OCwwLDkuNTgsMCw5LjU4LDBjMC4zOCwwLjk0LDEuMiwxLjY0LDIuMiwxLjY0YzEuMDEsMCwxLjgzLTAuNywyLjIxLTEuNjQgICAgIGMzLjE1LDAsMy4xNSwwLDMuMTUsMGMwLTEuNTEsMC0xLjUxLDAtMS41MWMtMC43NiwwLTAuNzYsMC0wLjc2LDBWMzIuMDN6IE0yMi40OSwzMi4wM2MwLDIuMzMsMCwyLjMzLDAsMi4zMyAgICAgYy0wLjg4LDAtMC44OCwwLTAuODgsMGMtMC4zOC0wLjg4LTEuMi0xLjU3LTIuMjEtMS41N2MtMSwwLTEuODIsMC42OS0yLjIsMS41N2MtNi4zNiwwLTYuMzYsMC02LjM2LDBjMC0zLjA4LDAtMy4wOCwwLTMuMDggICAgIGMxMC44MywwLDEwLjgzLDAsMTAuODMsMEMyMi4xOCwzMS4yOCwyMi40OSwzMS41OSwyMi40OSwzMi4wM3ogTTE1Ljk0LDI5LjdjLTUuMSwwLTUuMSwwLTUuMSwwYzAtMS41MSwwLTEuNTEsMC0xLjUxICAgICBjMy41OSwwLDMuNTksMCwzLjU5LDBMMTUuOTQsMjkuN3ogTTguMDYsMjguMTljMS4yNiwwLDEuMjYsMCwxLjI2LDBjMCwxLjUxLDAsMS41MSwwLDEuNTFjLTIuNzcsMC0yLjc3LDAtMi43NywwTDguMDYsMjguMTl6ICAgICAgTTIuMzMsMzMuNmMwLTEuMzIsMS4wMS0yLjMyLDIuNC0yLjMyYzQuNTksMCw0LjU5LDAsNC41OSwwYzAsMy4wOCwwLDMuMDgsMCwzLjA4Yy0xLjcsMC0xLjcsMC0xLjcsMCAgICAgYy0wLjMxLTAuODgtMS4xMy0xLjU3LTIuMTQtMS41N3MtMS44OSwwLjY5LTIuMiwxLjU3Yy0wLjk1LDAtMC45NSwwLTAuOTUsMEwyLjMzLDMzLjZ6IE01LjQ4LDM1Ljg3Yy0wLjQ0LDAtMC43NS0wLjMyLTAuNzUtMC43NiAgICAgYzAtMC4zNywwLjMxLTAuNzUsMC43NS0wLjc1YzAuMzgsMCwwLjc2LDAuMzgsMC43NiwwLjc1QzYuMjQsMzUuNTUsNS44NiwzNS44Nyw1LjQ4LDM1Ljg3eiBNMTkuNCwzNS44NyAgICAgYy0wLjQ0LDAtMC43NS0wLjMyLTAuNzUtMC43NmMwLTAuMzcsMC4zMS0wLjc1LDAuNzUtMC43NWMwLjQ1LDAsMC43NiwwLjM4LDAuNzYsMC43NUMyMC4xNiwzNS41NSwxOS44NSwzNS44NywxOS40LDM1Ljg3eiIvPiYjeGE7CQk8L2c+JiN4YTsJCTxnIGlkPSJzaGFwZTI3MTYtOCIgdHJhbnNmb3JtPSJ0cmFuc2xhdGUoMS4wOTgyNSwtMS43MzMwNSkiPiYjeGE7CQkJPHRpdGxlIGlkPSJ0aXRsZTQzNDg2Ij5TaGVldC4yNzE2PC90aXRsZT4mI3hhOwkJCTxwYXRoIGlkPSJwYXRoNDM0ODgiIGlua3NjYXBlOmNvbm5lY3Rvci1jdXJ2YXR1cmU9IjAiIHN0eWxlPSJmaWxsOiMwMEIwRjA7IiBkPSJNMCw2LjV2MzEuMDFoNDguNzdWNi41SDB6Ii8+JiN4YTsJCTwvZz4mI3hhOwkJPGcgaWQ9Imdyb3VwMjcxNy0xMCIgdHJhbnNmb3JtPSJ0cmFuc2xhdGUoMTAuNzM3OSwtNS4yNjEwOCkiPiYjeGE7CQkJPHRpdGxlIGlkPSJ0aXRsZTQzNDkxIj5CdXNpbmVzcyBSdWxlcyBFbmdpbmU8L3RpdGxlPiYjeGE7CQkJPGcgaWQ9InNoYXBlMjcxOC0xMSI+JiN4YTsJCQkJPHRpdGxlIGlkPSJ0aXRsZTQzNDkzIj5TaGVldC4yNzE4PC90aXRsZT4mI3hhOwkJCQk8cGF0aCBpZD0icGF0aDQzNDk1IiBpbmtzY2FwZTpjb25uZWN0b3ItY3VydmF0dXJlPSIwIiBzdHlsZT0iZmlsbDojRkZGRkZGOyIgZD0iTTIxLjU2LDI2LjIyYy0wLjM3LTEuOTgtMC4zNy0xLjk4LTAuMzctMS45OCAgICAgIGMtMC4wOC0wLjIyLTAuMjItMC4zNy0wLjUyLTAuNDRjLTMuMDItMC4xNS0zLjAyLTAuMTUtMy4wMi0wLjE1Yy0wLjE1LTAuMjItMC4zLTAuNTItMC40NS0wLjczYzEuNDEtMi43MywxLjQxLTIuNzMsMS40MS0yLjczICAgICAgYzAuMTQtMC4yMiwwLjA3LTAuNTEtMC4xNS0wLjY2Yy0xLjU1LTEuMjUtMS41NS0xLjI1LTEuNTUtMS4yNWMtMC4xNS0wLjIyLTAuNDUtMC4yMi0wLjY3LTAuMDdjLTIuNDMsMS45MS0yLjQzLDEuOTEtMi40MywxLjkxICAgICAgYy0wLjIzLTAuMTUtMC40NS0wLjIyLTAuNzQtMC4yOWMtMC43NC0zLjQ2LTAuNzQtMy40Ni0wLjc0LTMuNDZjLTAuMDctMC4yMi0wLjMtMC40NC0wLjUyLTAuNDRjLTIuMDYsMC0yLjA2LDAtMi4wNiwwICAgICAgYy0wLjIzLDAtMC40NSwwLjIyLTAuNTIsMC40NGMtMC43NCwzLjQ2LTAuNzQsMy40Ni0wLjc0LDMuNDZjLTAuMywwLjA3LTAuNTEsMC4xNC0wLjc0LDAuMjljLTIuNDMtMS45MS0yLjQzLTEuOTEtMi40My0xLjkxICAgICAgYy0wLjIyLTAuMTUtMC41Mi0wLjE1LTAuNjcsMEMzLjEsMTkuNTMsMy4xLDE5LjUzLDMuMSwxOS41M2MtMC4yMiwwLjE1LTAuMjIsMC40NC0wLjE1LDAuNjZjMS40MSwyLjczLDEuNDEsMi43MywxLjQxLDIuNzMgICAgICBjLTAuMTUsMC4yMS0wLjMsMC41MS0wLjQ1LDAuNzNDMC44OSwyMy44LDAuODksMjMuOCwwLjg5LDIzLjhjLTAuMywwLTAuNDUsMC4yMi0wLjUyLDAuNDRDMCwyNi4yMiwwLDI2LjIyLDAsMjYuMjIgICAgICBjMCwwLjIzLDAuMDcsMC41MiwwLjMsMC41OWMyLjg4LDEuMTgsMi44OCwxLjE4LDIuODgsMS4xOGMwLjA3LDAuMjksMC4wNywwLjU5LDAuMTQsMC44OGMtMi4yOSwyLjA2LTIuMjksMi4wNi0yLjI5LDIuMDYgICAgICBjLTAuMTQsMC4xNS0wLjIxLDAuNDQtMC4wNywwLjY2YzEuMDMsMS43NywxLjAzLDEuNzcsMS4wMywxLjc3YzAuMDgsMC4xNSwwLjM3LDAuMjksMC42LDAuMjJjMi45NS0wLjk2LDIuOTUtMC45NiwyLjk1LTAuOTYgICAgICBjMC4yMiwwLjIyLDAuNDQsMC40NSwwLjY2LDAuNTljLTAuMzcsMy4wMi0wLjM3LDMuMDItMC4zNywzLjAyYy0wLjA3LDAuMjksMC4wOCwwLjUxLDAuMywwLjU5YzEuOTIsMC42NiwxLjkyLDAuNjYsMS45MiwwLjY2ICAgICAgYzAuMjIsMC4wNywwLjUxLDAsMC42Ni0wLjE1YzEuNjMtMi42NSwxLjYzLTIuNjUsMS42My0yLjY1YzAuMTQsMCwwLjI5LDAuMDgsMC40NCwwLjA4czAuMjktMC4wOCwwLjQ0LTAuMDggICAgICBjMS42MywyLjY1LDEuNjMsMi42NSwxLjYzLDIuNjVjMC4xNCwwLjE1LDAuNDQsMC4yMiwwLjY2LDAuMTVjMS45Mi0wLjY2LDEuOTItMC42NiwxLjkyLTAuNjZjMC4yMi0wLjA4LDAuMzctMC4zLDAuMy0wLjU5ICAgICAgYy0wLjM4LTMuMDItMC4zOC0zLjAyLTAuMzgtMy4wMmMwLjIzLTAuMjIsMC40NS0wLjM3LDAuNjctMC41OWMyLjk1LDAuOTYsMi45NSwwLjk2LDIuOTUsMC45NmMwLjIyLDAuMDcsMC41Mi0wLjA3LDAuNi0wLjIyICAgICAgYzEuMDMtMS43NywxLjAzLTEuNzcsMS4wMy0xLjc3YzAuMTQtMC4yMiwwLjA3LTAuNTEtMC4wOC0wLjY2Yy0yLjI5LTIuMDYtMi4yOS0yLjA2LTIuMjktMi4wNmMwLjA4LTAuMjksMC4wOC0wLjU5LDAuMTUtMC44OCAgICAgIGMyLjg4LTEuMTgsMi44OC0xLjE4LDIuODgtMS4xOEMyMS40OCwyNi43NCwyMS41NiwyNi41MiwyMS41NiwyNi4yMnogTTE1LjA2LDI3LjExYzAsMS4xNy0wLjUyLDIuMi0xLjI1LDMuMDEgICAgICBjLTAuODIsMC43NC0xLjg1LDEuMjUtMy4wMywxLjI1Yy0xLjE4LDAtMi4yMi0wLjUxLTMuMDMtMS4yNWMtMC43My0wLjgxLTEuMjUtMS44NC0xLjI1LTMuMDFjMC0xLjE4LDAuNTItMi4yOCwxLjI1LTMuMDIgICAgICBjMC44MS0wLjgxLDEuODUtMS4yNSwzLjAzLTEuMjVzMi4yMSwwLjQ0LDMuMDMsMS4yNUMxNC41NCwyNC44MywxNS4wNiwyNS45MywxNS4wNiwyNy4xMXoiLz4mI3hhOwkJCTwvZz4mI3hhOwkJCTxnIGlkPSJzaGFwZTI3MTktMTMiIHRyYW5zZm9ybT0idHJhbnNsYXRlKDguNzgzODksLTguMzk5ODMpIj4mI3hhOwkJCQk8dGl0bGUgaWQ9InRpdGxlNDM0OTgiPlNoZWV0LjI3MTk8L3RpdGxlPiYjeGE7CQkJCTxwYXRoIGlkPSJwYXRoNDM1MDAiIGlua3NjYXBlOmNvbm5lY3Rvci1jdXJ2YXR1cmU9IjAiIHN0eWxlPSJmaWxsOiNGRkZGRkY7IiBkPSJNMCwzNS41MWMwLTEuMDksMC45LTEuOTksMS45OS0xLjk5ICAgICAgYzEuMTEsMCwyLDAuOSwyLDEuOTljMCwxLjEtMC44OSwyLTIsMkMwLjksMzcuNTEsMCwzNi42MSwwLDM1LjUxeiIvPiYjeGE7CQkJPC9nPiYjeGE7CQkJPGcgaWQ9InNoYXBlMjcyMC0xNSIgdHJhbnNmb3JtPSJ0cmFuc2xhdGUoMTguNTkxNywtMTIuMTY0OSkiPiYjeGE7CQkJCTx0aXRsZSBpZD0idGl0bGU0MzUwMyI+U2hlZXQuMjcyMDwvdGl0bGU+JiN4YTsJCQkJPHBhdGggaWQ9InBhdGg0MzUwNSIgaW5rc2NhcGU6Y29ubmVjdG9yLWN1cnZhdHVyZT0iMCIgc3R5bGU9ImZpbGw6I0ZGRkZGRjsiIGQ9Ik05LjUzLDMyLjQzYzAuMDgtMC4yMiwwLjE1LTAuNTIsMC4xNS0wLjgxICAgICAgYzAtMC4yMi0wLjA3LTAuNTItMC4xNS0wLjc0YzEuMTktMS4xLDEuMTktMS4xLDEuMTktMS4xYzAuMTUtMC4wOCwwLjE1LTAuMjMsMC4xNS0wLjM3YzAtMC4wNywwLTAuMjIsMC0wLjMgICAgICBjLTAuNTItMC44OC0wLjUyLTAuODgtMC41Mi0wLjg4Yy0wLjE1LTAuMTUtMC4zLTAuMjItMC41Mi0wLjIyYzAsMC0wLjA3LDAtMC4xNSwwQzguMiwyOC40NSw4LjIsMjguNDUsOC4yLDI4LjQ1ICAgICAgYy0wLjQ0LTAuMjktMC44OC0wLjU5LTEuNC0wLjczYy0wLjI5LTEuNTUtMC4yOS0xLjU1LTAuMjktMS41NWMtMC4wOC0wLjIyLTAuMy0wLjQ0LTAuNTItMC40NGMtMS4wNCwwLTEuMDQsMC0xLjA0LDAgICAgICBjLTAuMjksMC0wLjQ0LDAuMjItMC41MSwwLjQ0Yy0wLjM3LDEuNTUtMC4zNywxLjU1LTAuMzcsMS41NWMtMC41MiwwLjE0LTAuOTYsMC40NC0xLjM0LDAuODFjLTEuNTQtMC41Mi0xLjU0LTAuNTItMS41NC0wLjUyICAgICAgYy0wLjA4LDAtMC4wOCwwLTAuMTUsMGMtMC4xNSwwLTAuMzcsMC4wNy0wLjQ1LDAuMjJjLTAuNTIsMC44OC0wLjUyLDAuODgtMC41MiwwLjg4QzAsMjkuMTksMCwyOS4zNCwwLDI5LjQxICAgICAgYzAsMC4xNCwwLjA3LDAuMjksMC4xNSwwLjM3YzEuMjUsMS4xLDEuMjUsMS4xLDEuMjUsMS4xYy0wLjA3LDAuMjItMC4xNCwwLjUyLTAuMTQsMC43NGMwLDAuMjksMC4wNywwLjUxLDAuMTQsMC44MSAgICAgIGMtMS4yNSwxLjEtMS4yNSwxLjEtMS4yNSwxLjFDMC4wNywzMy42MSwwLDMzLjc1LDAsMzMuOWMwLDAuMDcsMCwwLjE1LDAuMDcsMC4yMkMwLjU5LDM1LDAuNTksMzUsMC41OSwzNSAgICAgIGMwLjA4LDAuMjMsMC4zLDAuMywwLjQ1LDAuM2MwLjA3LDAsMC4wNywwLDAuMTUsMGMxLjU0LTAuNTIsMS41NC0wLjUyLDEuNTQtMC41MmMwLjM4LDAuMywwLjgyLDAuNTksMS4zNCwwLjc0ICAgICAgYzAuMzcsMS42MiwwLjM3LDEuNjIsMC4zNywxLjYyYzAuMDcsMC4yMiwwLjIyLDAuMzcsMC41MSwwLjM3YzEuMDQsMCwxLjA0LDAsMS4wNCwwYzAuMjIsMCwwLjQ0LTAuMTUsMC41Mi0wLjM3ICAgICAgYzAuMjktMS41NSwwLjI5LTEuNTUsMC4yOS0xLjU1YzAuNTItMC4yMiwwLjk2LTAuNDQsMS40LTAuODFjMS40OCwwLjUyLDEuNDgsMC41MiwxLjQ4LDAuNTJjMC4wOCwwLDAuMTUsMCwwLjE1LDAgICAgICBjMC4yMiwwLDAuMzctMC4wNywwLjUyLTAuM2MwLjUyLTAuODgsMC41Mi0wLjg4LDAuNTItMC44OGMwLTAuMDcsMC4wNy0wLjE1LDAtMC4yMmMwLjA3LTAuMTUsMC0wLjI5LTAuMTUtMC4zN0w5LjUzLDMyLjQzeiAgICAgICBNNy4xLDMxLjYyYzAsMC44OC0wLjc0LDEuNjItMS42MywxLjYycy0xLjYyLTAuNzQtMS42Mi0xLjYyYzAtMC44OSwwLjczLTEuNjIsMS42Mi0xLjYyUzcuMSwzMC43Myw3LjEsMzEuNjJ6Ii8+JiN4YTsJCQk8L2c+JiN4YTsJCTwvZz4mI3hhOwk8L2c+JiN4YTs8L2c+JiN4YTs8L3N2Zz4=;strokeColor=default;align=center;fontFamily=Helvetica;fontSize=12;fontColor=default;fillColor=default;html=1;" vertex="1" parent="1">
          <mxGeometry x="630" y="220" width="161.05" height="120" as="geometry" />
        </mxCell>
        <mxCell id="pIrPDSXK6qlcN9ApZmw5-49" value="" style="edgeStyle=orthogonalEdgeStyle;rounded=0;orthogonalLoop=1;jettySize=auto;html=1;" edge="1" parent="1" source="pIrPDSXK6qlcN9ApZmw5-39" target="pIrPDSXK6qlcN9ApZmw5-48">
          <mxGeometry relative="1" as="geometry" />
        </mxCell>
        <mxCell id="pIrPDSXK6qlcN9ApZmw5-39" value="&lt;font style=&quot;font-size: 20px;&quot;&gt;kafka &lt;br&gt;Cluster&lt;/font&gt;" style="rounded=1;whiteSpace=wrap;html=1;shadow=0;strokeWidth=2;fontSize=12;align=center;arcSize=3;verticalAlign=top;fillColor=#e8f9fa;strokeColor=#6c8ebf;" vertex="1" parent="1">
          <mxGeometry x="870" y="120" width="150" height="445" as="geometry" />
        </mxCell>
        <mxCell id="pIrPDSXK6qlcN9ApZmw5-42" value="kafka node&amp;nbsp; &amp;nbsp;" style="strokeWidth=2;html=1;shape=mxgraph.flowchart.direct_data;whiteSpace=wrap;fillColor=#43CFD4;strokeColor=#b46504;" vertex="1" parent="1">
          <mxGeometry x="890" y="209.75" width="100" height="60" as="geometry" />
        </mxCell>
        <mxCell id="pIrPDSXK6qlcN9ApZmw5-43" value="kafka node&amp;nbsp; &amp;nbsp;" style="strokeWidth=2;html=1;shape=mxgraph.flowchart.direct_data;whiteSpace=wrap;fillColor=#43CFD4;strokeColor=#b46504;" vertex="1" parent="1">
          <mxGeometry x="890" y="330" width="100" height="60" as="geometry" />
        </mxCell>
        <mxCell id="pIrPDSXK6qlcN9ApZmw5-44" value="kafka node&amp;nbsp; &amp;nbsp;" style="strokeWidth=2;html=1;shape=mxgraph.flowchart.direct_data;whiteSpace=wrap;fillColor=#43CFD4;strokeColor=#b46504;" vertex="1" parent="1">
          <mxGeometry x="890" y="449.5" width="100" height="60" as="geometry" />
        </mxCell>
        <mxCell id="pIrPDSXK6qlcN9ApZmw5-47" value="" style="image;aspect=fixed;perimeter=ellipsePerimeter;html=1;align=center;shadow=0;dashed=0;fontColor=#4277BB;labelBackgroundColor=default;fontSize=12;spacingTop=3;image=img/lib/ibm/analytics/data_integration.svg;" vertex="1" parent="1">
          <mxGeometry x="650" y="409.5" width="101" height="101" as="geometry" />
        </mxCell>
        <mxCell id="pIrPDSXK6qlcN9ApZmw5-48" value="" style="whiteSpace=wrap;html=1;verticalAlign=top;fillColor=#cdeb8b;strokeColor=#36393d;rounded=1;shadow=0;strokeWidth=2;arcSize=3;" vertex="1" parent="1">
          <mxGeometry x="1090" y="120" width="400" height="440" as="geometry" />
        </mxCell>
      </root>
    </mxGraphModel>
  </diagram>
</mxfile>
